<?xml version="1.0" encoding="iso-8859-1"?>
<!-- Generator: Adobe Illustrator 19.1.0, SVG Export Plug-In . SVG Version: 6.00 Build 0)  -->
<svg version="1.1" id="Capa_1" xmlns="http://www.w3.org/2000/svg" xmlns:xlink="http://www.w3.org/1999/xlink" x="0px" y="0px"
	 viewBox="0 0 45.177 45.177" style="enable-background:new 0 0 45.177 45.177;" xml:space="preserve">
<g id="plugin_1_">
	<g>
		<path d="M25.653,30.979l2.851-2.848L17.1,16.741l-2.851,2.848L25.653,30.979z M42.324,28.565l-5.791-5.784l8.553-8.543
			l-2.851-2.848l-8.553,8.543l-8.553-8.543l8.553-8.543L30.831,0l-8.553,8.543l-5.613-5.606l-2.852-2.848l-2.851,2.848l2.852,2.848
			L2.254,17.33c-3.063,3.059-2.994,8.089,0.155,11.234l5.703,5.696l-6.671,6.663l2.851,2.848l6.671-6.663l5.671,5.664
			c3.144,3.14,8.17,3.214,11.235,0.166l11.598-11.532l2.857,2.854l2.851-2.848L42.324,28.565z M25.025,40.085
			c-1.486,1.478-3.971,1.406-5.54-0.16L5.26,25.716c-1.571-1.57-1.641-4.054-0.155-5.538l11.56-11.546l19.951,19.927L25.025,40.085z
			"/>
	</g>
</g>
<g>
</g>
<g>
</g>
<g>
</g>
<g>
</g>
<g>
</g>
<g>
</g>
<g>
</g>
<g>
</g>
<g>
</g>
<g>
</g>
<g>
</g>
<g>
</g>
<g>
</g>
<g>
</g>
<g>
</g>
</svg>
