<?xml version="1.0" encoding="iso-8859-1"?>
<!-- Generator: Adobe Illustrator 19.0.0, SVG Export Plug-In . SVG Version: 6.00 Build 0)  -->
<svg version="1.1" id="Capa_1" xmlns="http://www.w3.org/2000/svg" xmlns:xlink="http://www.w3.org/1999/xlink" x="0px" y="0px"
	 viewBox="0 0 59 59" style="enable-background:new 0 0 59 59;" xml:space="preserve">
<g>
	<g>
		<path d="M27.5,24V13.5c0-1.93,1.57-3.5,3.5-3.5s3.5,1.57,3.5,3.5V17c0,2.757,2.243,5,5,5s5-2.243,5-5V1c0-0.553-0.448-1-1-1
			s-1,0.447-1,1v16c0,1.654-1.346,3-3,3s-3-1.346-3-3v-3.5c0-3.032-2.467-5.5-5.5-5.5s-5.5,2.468-5.5,5.5V24h-25v35h58V24H27.5z
			 M56.5,57h-54V26h54V57z"/>
		<path d="M5.5,29v25h48V36.999L28.5,37v-8H5.5z M51.5,38.999V52h-44V31h19v8L51.5,38.999z"/>
		<path d="M19.5,36h-6v3h-3v6h3v3h6v-3h3v-6h-3V36z M20.5,41v2h-3v3h-2v-3h-3v-2h3v-3h2v3H20.5z"/>
		<path d="M46,49c1.93,0,3.5-1.57,3.5-3.5S47.93,42,46,42s-3.5,1.57-3.5,3.5S44.07,49,46,49z M46,44c0.827,0,1.5,0.673,1.5,1.5
			S46.827,47,46,47s-1.5-0.673-1.5-1.5S45.173,44,46,44z"/>
		<path d="M37,49c1.93,0,3.5-1.57,3.5-3.5S38.93,42,37,42s-3.5,1.57-3.5,3.5S35.07,49,37,49z M37,44c0.827,0,1.5,0.673,1.5,1.5
			S37.827,47,37,47s-1.5-0.673-1.5-1.5S36.173,44,37,44z"/>
		<path d="M24.5,46c0,0.553,0.448,1,1,1h5c0.552,0,1-0.447,1-1s-0.448-1-1-1h-5C24.948,45,24.5,45.447,24.5,46z"/>
	</g>
</g>
<g>
</g>
<g>
</g>
<g>
</g>
<g>
</g>
<g>
</g>
<g>
</g>
<g>
</g>
<g>
</g>
<g>
</g>
<g>
</g>
<g>
</g>
<g>
</g>
<g>
</g>
<g>
</g>
<g>
</g>
</svg>
