<?xml version="1.0" encoding="iso-8859-1"?>
<!-- Generator: Adobe Illustrator 18.0.0, SVG Export Plug-In . SVG Version: 6.00 Build 0)  -->
<!DOCTYPE svg PUBLIC "-//W3C//DTD SVG 1.1//EN" "http://www.w3.org/Graphics/SVG/1.1/DTD/svg11.dtd">
<svg version="1.1" id="Capa_1" xmlns="http://www.w3.org/2000/svg" xmlns:xlink="http://www.w3.org/1999/xlink" x="0px" y="0px"
	 viewBox="0 0 470.977 470.977" style="enable-background:new 0 0 470.977 470.977;" xml:space="preserve">
<path d="M463.477,343.933h-16.612l-30.963-90.275c-1.04-3.031-3.891-5.067-7.095-5.067h-22.441l-30.791-75
	c-1.156-2.814-3.896-4.651-6.938-4.651h-15.193l-29.255-53.017c-1.991-3.61-6.523-4.935-10.148-2.966l-41.152,22.374l-24.041-11.204
	c-3.072-1.431-6.719-0.626-8.902,1.964l-40.178,47.659l-19.038-4.6c-3.381-0.816-6.879,0.798-8.452,3.9l-33.254,65.623
	l-26.838,0.219c-3.053,0.025-5.785,1.897-6.911,4.734l-23.21,58.516l-9.853-4.511c-1.849-0.847-3.962-0.907-5.854-0.165
	c-1.894,0.741-3.405,2.218-4.188,4.094l-17.696,42.373H7.5c-4.142,0-7.5,3.358-7.5,7.5s3.358,7.5,7.5,7.5h455.977
	c4.143,0,7.5-3.358,7.5-7.5S467.62,343.933,463.477,343.933z M91.957,343.933l9.784-15.68l19.734-3.157l11.245,18.837H91.957z
	 M170.924,343.933l14.907-102.952h9.653l-15.348,102.952H170.924z M314.995,225.981H176.662v-9.592h138.333V225.981z
	 M281.003,240.981l15.354,102.952H195.302l15.348-102.952H281.003z M311.523,343.933l-15.354-102.952h9.659l14.906,102.952H311.523z
	 M365.359,343.933l7.943-15.912l13.177-2.635l8.858,18.547H365.359z M411.959,343.933l-14.461-30.278
	c-1.479-3.098-4.879-4.793-8.238-4.122l-22.499,4.5c-2.271,0.454-4.205,1.933-5.239,4.005l-12.927,25.896h-12.703l-14.906-102.952
	h1.509c4.143,0,7.5-3.358,7.5-7.5v-24.592c0-4.142-3.357-7.5-7.5-7.5H169.162c-4.142,0-7.5,3.358-7.5,7.5v24.592
	c0,4.142,3.358,7.5,7.5,7.5h1.513l-14.907,102.952h-5.577l-18.442-30.891c-1.573-2.636-4.596-4.046-7.625-3.561L96,313.981
	c-2.141,0.343-4.03,1.595-5.178,3.436l-16.546,26.517H40.728l12.292-29.435l9.981,4.57c1.869,0.855,4.009,0.906,5.917,0.14
	c1.908-0.766,3.418-2.283,4.176-4.194l24.26-61.165l14.449-0.118l-14.051,29.975c-1.758,3.75-0.143,8.216,3.608,9.974
	c1.029,0.482,2.112,0.711,3.178,0.711c2.819,0,5.52-1.597,6.796-4.319l51.638-104.948l44.4,11.134
	c0.626,0.161,1.253,0.238,1.871,0.238c3.342,0,6.389-2.25,7.259-5.636c1.03-4.012-1.387-8.1-5.398-9.13l-15.164-3.895l31.771-37.688
	l8.403,3.916l-12.206,6.27c-3.685,1.893-5.137,6.414-3.245,10.098c1.212,2.359,3.501,3.803,5.958,4.04
	c1.381,0.133,2.815-0.115,4.14-0.795l63.893-33.98l21.655,39.244h-20.075c-4.143,0-7.5,3.358-7.5,7.5s3.357,7.5,7.5,7.5h47.372
	l40.061,100.972c1.095,3.067,3.982,4.979,7.063,4.979c0.837,0,1.689-0.141,2.522-0.439c3.901-1.394,5.934-5.685,4.54-9.586
	l-5.813-16.275h11.471l27.557,80.342H411.959z"/>
<g>
</g>
<g>
</g>
<g>
</g>
<g>
</g>
<g>
</g>
<g>
</g>
<g>
</g>
<g>
</g>
<g>
</g>
<g>
</g>
<g>
</g>
<g>
</g>
<g>
</g>
<g>
</g>
<g>
</g>
</svg>
